<svg width="100" height="52" viewBox="0 0 100 52" fill="none" xmlns="http://www.w3.org/2000/svg">
<path fill-rule="evenodd" clip-rule="evenodd" d="M30.5573 27.0304H23.6555L24.44 15.0716L19.958 27.0304H13.549L23.7181 0H30.5375L29.7503 12.1229L34.3173 0H40.7268L30.5573 27.0304ZM31.3899 27.0304L41.5584 0H47.9674L37.7989 27.0304H31.3899Z" fill="white"/>
<path fill-rule="evenodd" clip-rule="evenodd" d="M12.8099 17.7134C3.85397 28.1982 -4.59431 42.1488 2.86801 48.5731C10.0989 54.7986 19.1372 51.1126 25.2999 48.6551C31.4625 46.1976 99.5784 16.7097 99.5784 16.7097C100.236 16.3821 100.113 15.9724 99.2909 16.177C98.9596 16.2596 25.1358 36.2041 25.1358 36.2041C15.7678 38.8257 5.08629 33.1121 12.8099 17.7134Z" fill="white"/>
<path fill-rule="evenodd" clip-rule="evenodd" d="M76.9648 4.50533L78.6872 0H59.1314L52.4167 8.10927L55.5168 0H49.0255L38.9382 27.0304H45.3472L49.6539 15.7268L49.9489 27.0304L69.6142 26.9878L71.4862 21.7883H64.0094L66.466 15.2357H72.6282L74.5242 10.1981H68.3621L70.4746 4.50533H76.9648ZM56.3072 25.2281L55.8962 11.14L65.5864 0.533799L56.3072 25.2281Z" fill="white"/>
</svg>
