<svg width="148" height="1124" viewBox="0 0 148 1124" fill="none" xmlns="http://www.w3.org/2000/svg">
<rect width="148" height="1124" fill="white"/>
<path d="M83.8199 1200.53C77.5172 1199.43 70.6978 1196.53 63.3505 1191.7C59.5679 1189.12 54.994 1185.49 49.6221 1180.77C50.9304 1181.2 52.2558 1181.59 53.5958 1181.92L53.5957 1181.92L53.6083 1181.92C58.9574 1183.22 63.772 1183.33 67.9659 1182.09C72.1966 1180.84 75.644 1178.26 78.2837 1174.46L78.2893 1174.45L78.2948 1174.44C80.8414 1170.7 82.0025 1165.72 82.0025 1159.71L82.0025 1159.7L82.0022 1159.68C81.9126 1154.26 81.1657 1148.86 79.7786 1143.63C79.7782 1143.62 79.7778 1143.62 79.7775 1143.62L47.2617 1018.65L100.233 1146.86C100.233 1146.86 100.233 1146.86 100.234 1146.86C105.464 1159.6 108 1170.13 108 1178.49C108 1187.91 104.846 1194.36 98.8231 1198.35C95.0556 1200.8 90.1296 1201.62 83.8199 1200.53Z" stroke="black" stroke-width="4"/>
<path d="M103 960.98L103 966.38L49 966.38L49 954.356L97.96 931.46L97.96 928.22L49 928.22L49 922.82L103 922.82L103 934.844L54.04 957.74L54.04 960.98L103 960.98ZM103 905.005L103 910.405L49 910.405L49 905.005L103 905.005ZM103 861.398L76.36 880.55L76.36 887.174L103 887.174L103 892.574L49 892.574L49 887.174L71.32 887.174L71.32 880.982L49 862.478L49 855.782L73.408 875.87L103 854.702L103 861.398ZM97.96 814.734L103 814.734L103 848.358L49 848.358L49 815.886L54.04 815.886L54.04 842.958L71.32 842.958L71.32 817.038L76.36 817.038L76.36 842.958L97.96 842.958L97.96 814.734Z" fill="#020A0F"/>
<path d="M83.8199 758.526C77.5172 757.435 70.6978 754.528 63.3505 749.696C59.5679 747.124 54.994 743.487 49.6221 738.769C50.9304 739.204 52.2558 739.589 53.5958 739.922L53.5957 739.922L53.6083 739.925C58.9574 741.217 63.772 741.327 67.9659 740.089C72.1966 738.839 75.644 736.261 78.2837 732.458L78.2893 732.45L78.2948 732.442C80.8414 728.695 82.0025 723.716 82.0025 717.715L82.0025 717.698L82.0022 717.682C81.9126 712.255 81.1657 706.862 79.7786 701.625C79.7782 701.624 79.7778 701.622 79.7775 701.621L47.2617 576.653L100.233 704.856C100.233 704.857 100.233 704.858 100.234 704.859C105.464 717.604 108 728.126 108 736.494C108 745.905 104.846 752.364 98.8231 756.349C95.0556 758.795 90.1296 759.619 83.8199 758.526Z" stroke="black" stroke-width="4"/>
<path d="M103 514.434L103 522.426L97.96 522.426L97.96 514.434C97.96 507.474 94.216 503.994 86.728 503.994L49 503.994L49 498.594L86.944 498.594C92.224 498.594 96.232 499.986 98.968 502.77C101.656 505.506 103 509.394 103 514.434ZM82.984 449.611C89.512 449.611 94.672 451.387 98.464 454.939C102.208 458.491 104.08 463.291 104.08 469.339C104.08 475.387 102.208 480.187 98.464 483.739C94.672 487.291 89.512 489.067 82.984 489.067L49 489.067L49 483.667L83.488 483.667C88.192 483.667 91.936 482.419 94.72 479.923C97.504 477.379 98.896 473.851 98.896 469.339C98.896 464.827 97.504 461.323 94.72 458.827C91.936 456.283 88.192 455.011 83.488 455.011L49 455.011L49 449.611L82.984 449.611ZM103 421.71L103 442.59L97.672 442.59L97.672 421.35C97.672 416.79 96.568 413.382 94.36 411.126C92.152 408.822 89.416 407.67 86.152 407.67C78.856 407.67 75.208 412.23 75.208 421.35L75.208 427.83C75.208 432.006 74.008 435.462 71.608 438.198C69.208 440.886 66.112 442.23 62.32 442.23C58.384 442.23 55.192 440.862 52.744 438.126C50.248 435.342 49 431.766 49 427.398L49 405.51L54.328 405.51L54.328 427.686C54.328 430.566 55.096 432.774 56.632 434.31C58.12 435.846 60.016 436.614 62.32 436.614C64.48 436.614 66.28 435.846 67.72 434.31C69.16 432.774 69.88 430.566 69.88 427.686L69.88 421.35C69.88 414.918 71.416 410.094 74.488 406.878C77.56 403.662 81.424 402.054 86.08 402.054C90.928 402.054 94.96 403.71 98.176 407.022C101.392 410.286 103 415.182 103 421.71ZM103 379.306L103 384.706L54.04 384.706L54.04 398.602L49 398.602L49 365.338L54.04 365.338L54.04 379.306L103 379.306ZM103 327.216L103 342.624L49 342.624L49 327.288C49 318.264 51.472 311.184 56.416 306.048C61.36 300.912 67.888 298.344 76 298.344C84.16 298.344 90.712 300.912 95.656 306.048C100.552 311.184 103 318.24 103 327.216ZM54.04 327.36L54.04 337.224L97.96 337.224L97.96 327.288C97.96 319.32 95.92 313.416 91.84 309.576C87.76 305.736 82.48 303.816 76 303.816C69.568 303.816 64.312 305.76 60.232 309.648C56.104 313.488 54.04 319.392 54.04 327.36ZM76.072 235.061C83.992 235.061 90.64 237.725 96.016 243.053C101.392 248.381 104.08 255.077 104.08 263.141C104.08 271.157 101.392 277.853 96.016 283.229C90.64 288.557 83.992 291.221 76.072 291.221C68.104 291.221 61.432 288.557 56.056 283.229C50.68 277.853 47.992 271.157 47.992 263.141C47.992 255.077 50.68 248.381 56.056 243.053C61.432 237.725 68.104 235.061 76.072 235.061ZM76.072 285.605C82.648 285.605 88.096 283.493 92.416 279.269C96.736 275.045 98.896 269.669 98.896 263.141C98.896 256.613 96.736 251.237 92.416 247.013C88.096 242.789 82.648 240.677 76.072 240.677C69.448 240.677 63.976 242.789 59.656 247.013C55.336 251.237 53.176 256.613 53.176 263.141C53.176 269.669 55.336 275.045 59.656 279.269C63.976 283.493 69.448 285.605 76.072 285.605ZM103 203.506L103 208.906L49 208.906L49 203.506L103 203.506ZM103 176.098L103 181.498L54.04 181.498L54.04 195.394L49 195.394L49 162.13L54.04 162.13L54.04 176.098L103 176.098Z" fill="#020A0F"/>
<path d="M83.8199 102.526C77.5172 101.435 70.6978 98.5282 63.3505 93.6957C59.5679 91.1238 54.994 87.4869 49.6221 82.769C50.9304 83.2043 52.2558 83.5889 53.5958 83.9218L53.5957 83.9218L53.6083 83.9248C58.9574 85.217 63.772 85.327 67.9659 84.0885C72.1966 82.8391 75.644 80.2609 78.2837 76.4581L78.2893 76.4501L78.2948 76.4419C80.8414 72.6952 82.0025 67.7159 82.0025 61.7147L82.0025 61.6982L82.0022 61.6817C81.9126 56.2554 81.1657 50.8616 79.7786 45.6252C79.7782 45.6238 79.7778 45.6224 79.7775 45.6211L47.2617 -79.347L100.233 48.8557C100.233 48.8566 100.233 48.8576 100.234 48.8585C105.464 61.6037 108 72.1265 108 80.4944C108 89.9051 104.846 96.3642 98.8231 100.349C95.0556 102.795 90.1296 103.619 83.8199 102.526Z" stroke="black" stroke-width="4"/>
</svg>
